<?xml version="1.0" encoding="UTF-8" standalone="no"?>
<svg
   xmlns:dc="http://purl.org/dc/elements/1.1/"
   xmlns:cc="http://creativecommons.org/ns#"
   xmlns:rdf="http://www.w3.org/1999/02/22-rdf-syntax-ns#"
   xmlns:svg="http://www.w3.org/2000/svg"
   xmlns="http://www.w3.org/2000/svg"
   viewBox="0 0 286.35678 24.839999"
   height="24.84"
   width="286.35678"
   xml:space="preserve"
   id="svg2"
   version="1.1"><metadata
     id="metadata8"><rdf:RDF><cc:Work
         rdf:about=""><dc:format>image/svg+xml</dc:format><dc:type
           rdf:resource="http://purl.org/dc/dcmitype/StillImage" /><dc:title></dc:title></cc:Work></rdf:RDF></metadata><defs
     id="defs6" /><g
     transform="matrix(1.3333333,0,0,-1.3333333,-254.83321,572.63931)"
     id="g10"><path
       id="path12"
       style="fill:#231f20;fill-opacity:1;fill-rule:evenodd;stroke:none"
       d="m 193.78125,420.09082 -0.004,-8.15625 c 0,-0.26465 0.0352,-0.54785 0.11036,-0.84668 h -2.7627 c 0.0723,0.29883 0.1084,0.58203 0.1084,0.84668 v 8.30371 c -0.003,3.11817 1.29004,5.52344 3.87793,7.21094 2.06836,1.35351 4.80176,2.03027 8.20898,2.03027 1.12989,0 2.15821,-0.0742 3.09473,-0.21875 0.93066,-0.15039 2.0791,-0.41406 3.4541,-0.80371 v -1.57617 c -2.39453,1.06055 -4.70703,1.58594 -6.94629,1.58594 -2.5625,0 -4.67871,-0.64258 -6.35058,-1.93457 -0.98633,-0.76075 -1.65821,-1.6045 -2.07813,-2.5166 -0.41797,-0.90333 -0.66504,-2.12696 -0.70508,-3.21485 h 12.17188 c 0.36133,0 0.75,0.0371 1.1582,0.10449 V 420 c -0.33008,0.0605 -0.72461,0.0937 -1.19531,0.0937 l -12.14258,-0.003 m 112.60352,8.18652 v -1.56152 c -2.375,1.04883 -4.66797,1.57422 -6.88282,1.57422 -2.53906,0 -4.63476,-0.63867 -6.2959,-1.91602 -0.97851,-0.75683 -1.6582,-1.58691 -2.05664,-2.49511 -0.47753,-1.12793 -0.71484,-2.39746 -0.71484,-3.78516 0,-0.95801 0.13965,-1.89551 0.40918,-2.83398 0.27344,-0.93067 0.64844,-1.69336 1.10938,-2.28028 0.92968,-1.20605 2.29492,-2.08008 4.0957,-2.61621 1.14453,-0.33398 2.39746,-0.49805 3.75195,-0.49805 1.75781,0 3.41113,0.32129 4.99121,0.96094 v 7.23828 c 0,0.26465 -0.0371,0.54883 -0.1123,0.84375 h 2.49414 c -0.0742,-0.29492 -0.11328,-0.5791 -0.11328,-0.84375 v -6.96289 c 0.0127,-0.35254 0.0908,-0.67676 0.2334,-0.97265 -1.90918,-0.50098 -3.39649,-0.83301 -4.47852,-0.99805 -1.07715,-0.16699 -2.26074,-0.25391 -3.5625,-0.25391 -3.45996,0 -6.16113,0.79297 -8.12402,2.36914 -2.14161,1.74121 -3.21289,4.04102 -3.21289,6.88184 0,3.09473 1.28027,5.48047 3.84277,7.15039 2.05176,1.34668 4.75879,2.01367 8.13379,2.01367 1.12305,0 2.13965,-0.0703 3.0664,-0.21875 0.92286,-0.14551 2.06641,-0.41113 3.42579,-0.7959 m -43.08204,0.95801 c 3.24512,0 5.77735,-0.78027 7.58106,-2.34472 1.88379,-1.61133 2.82715,-3.88868 2.82715,-6.83008 0,-2.94434 -0.94336,-5.23535 -2.82715,-6.86621 -1.79492,-1.5586 -4.29981,-2.34473 -7.52246,-2.34473 -3.42969,0 -6.0332,0.82422 -7.8125,2.46777 -1.77344,1.65235 -2.66211,3.95703 -2.66211,6.90039 0,2.82129 0.94531,5.03809 2.82617,6.67286 1.76367,1.5371 4.29395,2.32031 7.58984,2.34472 m -0.0996,-0.88867 c -2.667,0 -4.66993,-0.81934 -6.00586,-2.46777 -1.19336,-1.45411 -1.78418,-3.35352 -1.78418,-5.69727 0,-2.50879 0.59082,-4.50488 1.78418,-5.98633 1.32421,-1.63672 3.375,-2.45801 6.14941,-2.45801 2.5918,0 4.56836,0.77442 5.93262,2.31836 1.26953,1.44043 1.9082,3.43946 1.9082,5.99512 0,2.57031 -0.63867,4.56934 -1.9082,5.98242 -0.72657,0.80664 -1.55664,1.38672 -2.5,1.73145 -0.99512,0.37793 -2.18555,0.56933 -3.57617,0.58203 m -16.49903,0.65039 h 2.51367 c -0.0869,-0.20019 -0.12597,-0.47754 -0.12597,-0.83496 v -16.23047 c 0,-0.36523 0.0391,-0.64258 0.12597,-0.84375 h -2.51367 c 0.0791,0.28809 0.11817,0.56641 0.11817,0.84375 v 16.23047 c 0,0.26758 -0.0391,0.55078 -0.11817,0.83496 m -18.15332,0 h 6.33203 c 2.00489,0 3.63477,-0.28809 4.91211,-0.87402 1.55664,-0.70703 2.33789,-1.8584 2.33789,-3.4668 0,-1.04199 -0.42578,-1.92187 -1.28906,-2.63574 -0.76953,-0.65723 -2.09863,-1.17969 -3.97461,-1.56446 1.00977,-0.10058 1.85742,-0.27148 2.55078,-0.49218 0.91406,-0.31153 1.63672,-0.76465 2.17383,-1.37012 0.68945,-0.7666 1.03906,-1.64453 1.03906,-2.62598 0,-1.66797 -0.89062,-2.96777 -2.66211,-3.8916 -1.23828,-0.66015 -2.68457,-0.98828 -4.35058,-0.98828 h -7.06934 c 0.0781,0.23535 0.12305,0.52539 0.12305,0.86426 v 16.21777 c 0,0.32813 -0.0449,0.59961 -0.12305,0.82715 m 2.3877,-17.01855 h 3.76855 c 0.92383,0 1.66992,0.0508 2.22266,0.16406 0.55566,0.11035 1.07324,0.31152 1.55859,0.60058 1.20313,0.67579 1.80371,1.70997 1.80371,3.08399 0,1.53711 -0.69824,2.66992 -2.10644,3.39941 -0.66504,0.3418 -1.34864,0.56641 -2.04297,0.68262 -0.69531,0.125 -1.69922,0.18164 -3.00781,0.18164 h -2.19629 v -8.1123 m 0,8.833 h 2.21191 c 1.90039,0 3.39063,0.24121 4.48731,0.71973 1.43652,0.62598 2.15722,1.70801 2.15722,3.25195 0,2.27735 -1.81054,3.41309 -5.42383,3.41309 h -3.43261 v -7.38477 m 172.4375,8.19239 h 2.5166 c -0.0869,-0.20118 -0.13477,-0.48243 -0.13477,-0.83789 v -16.20411 c 0,-0.3623 0.0478,-0.64355 0.13477,-0.84765 h -2.5166 c 0.0781,0.28808 0.12597,0.56933 0.12597,0.84765 v 16.20411 c 0,0.27148 -0.0479,0.55273 -0.12597,0.83789 m -19.63282,-17.88965 v 1.07617 l 13.76954,16.00879 H 385.4628 c -0.11621,0 -0.50586,-0.0156 -1.16113,-0.0508 -0.0801,-0.009 -0.26172,-0.0195 -0.5586,-0.0254 v 0.88086 h 16.24414 v -0.89453 l -13.82617,-16.1045 h 12.21875 c 0.62696,0 1.15821,0.041 1.60742,0.10742 v -0.99804 h -16.24414 m -19.84375,0 v 1.07617 l 13.7627,16.00879 h -12.05273 c -0.11915,0 -0.50879,-0.0156 -1.16016,-0.0508 -0.082,-0.009 -0.26367,-0.0195 -0.54981,-0.0254 v 0.88086 h 16.23731 v -0.89453 l -13.82617,-16.1045 h 12.21875 c 0.62304,0 1.1582,0.041 1.60742,0.10742 v -0.99804 h -16.23731 m -37.52343,17.88965 h 2.52441 c 0.0293,-0.16797 0.11328,-0.40625 0.25586,-0.71094 l 7.36328,-15.50098 7.4668,15.60547 c 0.11816,0.24707 0.19824,0.44922 0.2373,0.60645 h 1.24512 c -0.0869,-0.13086 -0.21875,-0.36914 -0.41016,-0.71094 L 337.1796,411.784 c -0.0332,-0.0859 -0.10938,-0.30762 -0.20996,-0.66992 h -2.03028 c -0.0537,0.1582 -0.15234,0.38574 -0.30957,0.66992 l -7.77148,16.3252 c -0.0127,0.0391 -0.10938,0.21777 -0.28223,0.54296 -0.0391,0.0527 -0.10547,0.16797 -0.20019,0.35157 m 21.19043,-8.88282 -4.03321,-8.32617 c -0.0742,-0.14453 -0.11523,-0.375 -0.12793,-0.68066 h -1.39062 c 0.20215,0.30176 0.3418,0.52637 0.42383,0.68066 l 8.09765,16.66016 c 0.0596,0.10547 0.11524,0.29101 0.15918,0.54883 h 2.06641 c 0.0352,-0.17774 0.085,-0.3252 0.14648,-0.44532 l 8.39453,-16.76367 c 0.082,-0.16699 0.24512,-0.39258 0.49805,-0.68066 h -2.74512 c -0.0225,0.2207 -0.0879,0.45215 -0.19531,0.68066 l -4.20898,8.32617 h -7.08496 m 0.34863,0.71289 3.11133,6.41602 3.25683,-6.41602 h -6.36816 m -32.69043,-0.71289 -4.03125,-8.32617 c -0.0723,-0.14453 -0.11523,-0.375 -0.12109,-0.68066 h -1.39551 c 0.2041,0.30176 0.34863,0.52637 0.42676,0.68066 l 8.09472,16.66016 c 0.0596,0.10547 0.11328,0.29101 0.16699,0.54883 h 2.06739 c 0.0312,-0.17774 0.0742,-0.3252 0.13769,-0.44532 l 8.39649,-16.76367 c 0.084,-0.16699 0.2539,-0.39258 0.49902,-0.68066 h -2.74316 c -0.0225,0.2207 -0.0889,0.45215 -0.19629,0.68066 l -4.20996,8.32617 h -7.0918 m 0.35449,0.71289 3.11817,6.41602 3.2539,-6.41602 h -6.37207 m -103.94043,-0.74023 -4.03515,-8.32227 c -0.0684,-0.15429 -0.11329,-0.38281 -0.1211,-0.68359 h -1.39648 c 0.20312,0.29492 0.35156,0.52246 0.43066,0.68359 l 8.09278,16.65235 c 0.0596,0.11133 0.11718,0.29492 0.1621,0.5498 h 2.07129 c 0.0244,-0.1748 0.0791,-0.32129 0.1377,-0.44824 l 8.39648,-16.75391 c 0.0879,-0.16796 0.25196,-0.3955 0.5,-0.68359 h -2.74804 c -0.0205,0.2207 -0.0898,0.44531 -0.18946,0.68359 l -4.21289,8.32227 h -7.08789 m 0.34766,0.70703 3.12109,6.4209 3.24805,-6.41504" /></g></svg>